<svg width="14" height="15" viewBox="0 0 14 15" fill="none" xmlns="http://www.w3.org/2000/svg">
<g clip-path="url(#clip0_18_11398)">
<path d="M4.66683 6.69165C4.989 6.69165 5.25016 6.95281 5.25016 7.27498C5.25016 8.24148 6.03367 9.02498 7.00016 9.02498C7.96666 9.02498 8.75016 8.24148 8.75016 7.27498C8.75016 6.95281 9.01132 6.69165 9.3335 6.69165C9.65567 6.69165 9.91683 6.95281 9.91683 7.27498C9.91683 8.88581 8.61099 10.1917 7.00016 10.1917C5.38934 10.1917 4.0835 8.88581 4.0835 7.27498C4.0835 6.95281 4.34466 6.69165 4.66683 6.69165Z" fill="#F8FAFC"/>
<path fill-rule="evenodd" clip-rule="evenodd" d="M9.91673 4.35815H11.1638C12.0819 4.35815 12.8439 5.06769 12.9093 5.98348L13.2367 10.567C13.3573 12.2554 12.0201 13.6915 10.3275 13.6915H3.67268C1.98002 13.6915 0.642824 12.2554 0.763422 10.567L1.09082 5.98348C1.15623 5.06769 1.91825 4.35815 2.83637 4.35815H4.0834V3.77482C4.0834 2.164 5.38924 0.858154 7.00006 0.858154C8.61089 0.858154 9.91673 2.164 9.91673 3.77482V4.35815ZM5.25006 4.35815H8.75006V3.77482C8.75006 2.80832 7.96656 2.02482 7.00006 2.02482C6.03357 2.02482 5.25006 2.80832 5.25006 3.77482V4.35815ZM2.83637 5.52482C2.53033 5.52482 2.27632 5.76133 2.25451 6.06659L1.92713 10.6501C1.85477 11.6632 2.65708 12.5248 3.67268 12.5248H10.3275C11.343 12.5248 12.1454 11.6632 12.073 10.6501L11.7456 6.06659C11.7238 5.76133 11.4698 5.52482 11.1638 5.52482H2.83637Z" fill="#F8FAFC"/>
</g>
<defs>
<clipPath id="clip0_18_11398">
<rect width="14" height="14" fill="white" transform="translate(0 0.274902)"/>
</clipPath>
</defs>
</svg>
